<svg xmlns="http://www.w3.org/2000/svg" height="300px" width="300px"
     fill="#000000" version="1.1" x="0px" y="0px" viewBox="0 0 100 100" enable-background="new 0 0 100 100"
     xml:space="preserve"><path fill="#000000" d="M40.074,49.216C36.97,46.466,35,42.463,35,38c0-8.271,6.729-15,15-15s15,6.729,15,15  c0,4.463-1.97,8.466-5.074,11.216c1.896,0.905,3.612,2.065,5.104,3.421C68.717,48.851,71,43.69,71,38c0-11.58-9.42-21-21-21  s-21,9.42-21,21c0,5.69,2.283,10.851,5.97,14.636C36.462,51.28,38.178,50.121,40.074,49.216z"/>
    <circle fill="#000000" cx="50" cy="38" r="9"/>
    <path fill="#000000"
          d="M50,53c-8.284,0-15,5.641-15,12.6c0,6.232,0.8,13.139,2.399,19.399c0.93,3.64,2.827,8.157,2.827,8.157  C40.652,94.17,41.9,95,43,95h14c1.1,0,2.348-0.83,2.774-1.844c0,0,1.896-4.517,2.826-8.156C64.2,78.74,65,71.832,65,65.6  C65,58.641,58.284,53,50,53z"/>
    <path fill="#000000"
          d="M50,5C31.804,5,17,19.804,17,38c0,10.288,4.734,19.488,12.136,25.545c0.275-2.204,0.999-4.284,2.068-6.189  C26.149,52.446,23,45.586,23,38c0-14.888,12.112-27,27-27s27,12.112,27,27c0,7.586-3.149,14.446-8.204,19.356  c1.069,1.905,1.793,3.985,2.068,6.189C78.266,57.488,83,48.288,83,38C83,19.804,68.196,5,50,5z"/>
</svg>
